<svg preserveAspectRatio="none" width="100%" height="100%" overflow="visible" style="display: block;" viewBox="0 0 24 24" fill="none" xmlns="http://www.w3.org/2000/svg">
<g id="Frame">
<path id="Vector" d="M23.4952 6.205C23.3561 5.70676 23.0909 5.25282 22.7252 4.88705C22.3594 4.52128 21.9054 4.25605 21.4072 4.117C19.5372 3.616 12.0112 3.616 12.0112 3.616C12.0112 3.616 4.5042 3.606 2.6152 4.117C2.11696 4.25605 1.66302 4.52128 1.29725 4.88705C0.931479 5.25282 0.66625 5.70676 0.527199 6.205C0.17272 8.11951 -0.00204013 10.063 0.00519933 12.01C-0.000671543 13.9497 0.174083 15.8857 0.527199 17.793C0.66625 18.2912 0.931479 18.7452 1.29725 19.111C1.66302 19.4767 2.11696 19.7419 2.6152 19.881C4.4832 20.383 12.0112 20.383 12.0112 20.383C12.0112 20.383 19.5172 20.383 21.4072 19.881C21.9054 19.7419 22.3594 19.4767 22.7252 19.111C23.0909 18.7452 23.3561 18.2912 23.4952 17.793C23.8409 15.885 24.0083 13.949 23.9952 12.01C24.0097 10.0637 23.8423 8.1202 23.4952 6.205ZM9.6092 15.601V8.408L15.8732 12.01L9.6092 15.601Z" fill="var(--fill-0, #262626)"/>
</g>
</svg>
