<svg preserveAspectRatio="none" width="100%" height="100%" overflow="visible" style="display: block;" viewBox="0 0 24 24" fill="none" xmlns="http://www.w3.org/2000/svg">
<g id="Frame" clip-path="url(#clip0_0_11)">
<path id="Vector" d="M19.9689 0H4.03151C1.81439 0 0.00046875 1.81392 0.00046875 4.03104V19.9685C0.00046875 22.1856 1.81439 23.9995 4.03151 23.9995H19.9689C22.1861 23.9995 24 22.1856 24 19.9685V4.03104C24 1.81392 22.1861 0 19.9689 0ZM8.99999 19.5H5.99999V9H8.99999V19.5ZM7.49999 7.5C6.67151 7.5 5.99999 6.82848 5.99999 6C5.99999 5.17152 6.67151 4.5 7.49999 4.5C8.32847 4.5 8.99999 5.17152 8.99999 6C8.99999 6.82848 8.32847 7.5 7.49999 7.5ZM19.5 19.5H16.5V13.5C16.5 12.6715 15.8285 12 15 12C14.1715 12 13.5 12.6715 13.5 13.5V19.5H10.5V9H13.5V10.8624C14.1187 10.0123 15.0643 9 16.1251 9C17.9889 9 19.5 10.679 19.5 12.7502V19.5005V19.5Z" fill="var(--fill-0, #262626)"/>
</g>
<defs>
<clipPath id="clip0_0_11">
<rect width="24" height="24" fill="white"/>
</clipPath>
</defs>
</svg>
