<svg preserveAspectRatio="none" width="100%" height="100%" overflow="visible" style="display: block;" viewBox="0 0 65.2453 37.893" fill="none" xmlns="http://www.w3.org/2000/svg">
<g id="Group">
<path id="Vector" fill-rule="evenodd" clip-rule="evenodd" d="M9.8124 0V9.44112L3.02328 0H0V15.4734H3.28236V5.80584L10.2979 15.4734H13.0948V0H9.8124Z" fill="var(--fill-0, #00071E)"/>
<path id="Vector_2" fill-rule="evenodd" clip-rule="evenodd" d="M44.531 6.23628C43.6028 6.23628 42.8399 6.54024 42.2421 7.14816C41.6444 7.75608 41.3466 8.54148 41.3466 9.5064C41.3466 10.4713 41.6444 11.2567 42.2421 11.8646C42.8399 12.4726 43.6028 12.7765 44.531 12.7765C45.4592 12.7765 46.2222 12.4726 46.8199 11.8646C47.4176 11.2567 47.7155 10.4713 47.7155 9.5064C47.7155 8.54148 47.4176 7.75608 46.8199 7.14816C46.2222 6.54024 45.4592 6.23628 44.531 6.23628ZM44.531 3.20484C45.7407 3.20484 46.8362 3.47616 47.8236 4.0188C47.9909 4.1106 48.1541 4.21056 48.3091 4.3146L48.56 3.48024H50.9774V9.17796C50.9815 9.28608 50.9856 9.3942 50.9856 9.50436C50.9856 9.61452 50.9835 9.72264 50.9774 9.82872V15.4142H48.1622V14.7818C48.0541 14.8532 47.9399 14.9206 47.8215 14.9858C46.8362 15.5326 45.7387 15.8059 44.529 15.8059C43.3193 15.8059 42.2115 15.5326 41.2262 14.9858C40.2409 14.4391 39.4677 13.6843 38.9108 12.7194C38.3539 11.7565 38.0744 10.6835 38.0744 9.50436C38.0744 8.32524 38.3539 7.23384 38.9108 6.273C39.4677 5.31216 40.2409 4.56144 41.2262 4.01676C42.2115 3.47412 43.3131 3.2028 44.529 3.2028L44.531 3.20484Z" fill="var(--fill-0, #00071E)"/>
<path id="Vector_3" fill-rule="evenodd" clip-rule="evenodd" d="M29.4515 22.5542H35.1267V31.4527H31.5363V25.5184L29.4515 23.3009V22.5542Z" fill="var(--fill-0, #00071E)"/>
<path id="Vector_4" fill-rule="evenodd" clip-rule="evenodd" d="M64.0477 20.3449C64.8473 21.2486 65.2451 22.4584 65.2451 23.9761V31.4527H62.0179V24.4943C62.0179 22.7093 61.3222 21.8178 59.935 21.8178C59.1068 21.8178 58.454 22.0973 57.9766 22.6542C57.4972 23.2111 57.2585 23.972 57.2585 24.937V31.4527H54.0312V19.2862H56.2447L56.8709 20.7488C57.332 20.2021 57.9052 19.7717 58.5927 19.4596C59.2802 19.1474 60.0227 18.9904 60.8224 18.9904C62.1749 18.9904 63.2521 19.4412 64.0497 20.3449H64.0477Z" fill="var(--fill-0, #00071E)"/>
<path id="Vector_5" fill-rule="evenodd" clip-rule="evenodd" d="M50.9531 31.5955V25.3103C50.9531 25.3103 50.9531 25.298 50.9531 25.2919C50.9531 25.2062 50.949 25.1246 50.9449 25.039V19.2862H48.5275L48.2888 20.1124C48.1277 20.0042 47.9624 19.8982 47.789 19.8023C46.8037 19.2596 45.7062 18.9883 44.4965 18.9883C43.2867 18.9883 42.179 19.2596 41.1937 19.8023C40.2084 20.3449 39.4352 21.0977 38.8783 22.0585C38.3214 23.0194 38.0419 24.0965 38.0419 25.2899C38.0419 26.4833 38.3214 27.542 38.8783 28.5049C39.4352 29.4698 40.2084 30.2246 41.1937 30.7714C42.179 31.3181 43.2806 31.5914 44.4965 31.5914C45.7123 31.5914 46.7221 31.3344 47.6809 30.8264V31.5914C47.6809 32.5564 47.3831 33.3418 46.7853 33.9497C46.1876 34.5576 45.4247 34.8616 44.4965 34.8616C43.5683 34.8616 42.8053 34.5556 42.2076 33.9497C41.9057 33.6416 41.6792 33.2867 41.5303 32.8868H38.1623C38.2928 33.5682 38.5315 34.2088 38.8783 34.8065C39.4352 35.7714 40.2084 36.5262 41.1937 37.0729C42.179 37.6196 43.2806 37.893 44.4965 37.893C45.7123 37.893 46.8037 37.6196 47.789 37.0729C48.7743 36.5262 49.5495 35.7714 50.1105 34.8065C50.6715 33.8436 50.951 32.7706 50.951 31.5894L50.9531 31.5955ZM44.4985 28.562C43.5703 28.562 42.8073 28.2581 42.2096 27.6502C41.6119 27.0422 41.3141 26.2568 41.3141 25.2919C41.3141 24.327 41.6119 23.5416 42.2096 22.9337C42.8073 22.3258 43.5703 22.0218 44.4985 22.0218C45.4267 22.0218 46.1897 22.3258 46.7874 22.9337C47.3851 23.5416 47.6829 24.327 47.6829 25.2919C47.6829 26.2568 47.3851 27.0422 46.7874 27.6502C46.1897 28.2581 45.4267 28.562 44.4985 28.562Z" fill="var(--fill-0, #00071E)"/>
<path id="Vector_6" fill-rule="evenodd" clip-rule="evenodd" d="M21.9012 15.808C20.6854 15.808 19.5838 15.5346 18.5985 14.9879C17.6132 14.4412 16.84 13.6864 16.2831 12.7214C15.7262 11.7586 15.4467 10.6855 15.4467 9.5064C15.4467 8.32728 15.7262 7.23588 16.2831 6.27504C16.84 5.3142 17.6132 4.56348 18.5985 4.0188C19.5838 3.47616 20.6854 3.20484 21.9012 3.20484C23.1171 3.20484 24.2064 3.47616 25.1938 4.0188C26.1791 4.56144 26.9543 5.31624 27.5153 6.27912C28.0763 7.24404 28.3578 8.31912 28.3578 9.5064C28.3578 10.6937 28.0763 11.7586 27.5153 12.7214C26.9543 13.6864 26.1812 14.4412 25.1938 14.9879C24.2085 15.5346 23.111 15.808 21.9012 15.808ZM19.6124 11.8646C20.2101 12.4726 20.973 12.7765 21.9012 12.7765C22.8294 12.7765 23.5924 12.4726 24.1901 11.8646C24.7878 11.2567 25.0857 10.4713 25.0857 9.5064C25.0857 8.54148 24.7878 7.75608 24.1901 7.14816C23.5924 6.54024 22.8294 6.23628 21.9012 6.23628C20.973 6.23628 20.2101 6.54024 19.6124 7.14816C19.0146 7.75608 18.7168 8.54148 18.7168 9.5064C18.7168 10.4713 19.0146 11.2567 19.6124 11.8646Z" fill="var(--fill-0, #00071E)"/>
<path id="Vector_7" fill-rule="evenodd" clip-rule="evenodd" d="M36.6259 12.6868H37.1563V15.5366H35.8119C34.5125 15.5366 33.4843 15.1592 32.7315 14.4065C31.9788 13.6537 31.6014 12.6194 31.6014 11.3057V6.25872H29.4594V5.57328L34.1391 0.593639H34.7491V3.68832H37.091V6.25872H34.8021V10.8752C34.8021 11.4546 34.9592 11.8993 35.2734 12.2135C35.5875 12.5276 36.0384 12.6847 36.6239 12.6847" fill="var(--fill-0, #00071E)"/>
<path id="Vector_8" fill-rule="evenodd" clip-rule="evenodd" d="M31.8238 20.2654C31.4708 19.9267 31.2934 19.5187 31.2934 19.0454C31.2934 18.4885 31.4912 18.0316 31.887 17.6766C32.2828 17.3216 32.7989 17.1544 33.4374 17.1748C34.0066 17.1931 34.4676 17.3665 34.8205 17.6929C35.1734 18.0173 35.3509 18.411 35.3509 18.87C35.3509 19.4698 35.149 19.9471 34.7471 20.3021C34.3452 20.657 33.825 20.8243 33.1865 20.8019C32.6316 20.7835 32.1767 20.604 31.8238 20.2633" fill="var(--fill-0, #00071E)"/>
<path id="Vector_9" fill-rule="evenodd" clip-rule="evenodd" d="M28.105 27.0749C27.542 24.0169 23.9658 23.407 21.4526 22.7766C20.7875 22.5746 19.8205 22.336 19.4493 21.6954C19.0637 21.0752 19.3105 20.2552 19.9633 19.9022C21.4117 19.0414 24.2331 19.4942 24.1637 21.6016H27.7398C27.7398 21.2364 27.7153 20.8896 27.6664 20.5591C27.6664 20.5591 27.6664 20.5571 27.6664 20.553C27.4889 19.3739 26.9932 18.413 26.1792 17.6725C26.1792 17.6725 26.1731 17.6664 26.1731 17.6644C23.7822 15.0919 19.027 15.2184 16.8238 17.9744H16.8217C16.4505 18.3784 16.1669 18.8353 15.9751 19.3535C15.9731 19.3576 15.9711 19.3637 15.969 19.3698C15.1999 21.6036 15.7916 24.1475 18.2028 25.2103C19.0596 25.6877 21.5138 26.216 22.8867 26.6098C23.5456 26.8219 24.1494 27.1034 24.4656 27.6808C24.7533 28.4172 24.4758 29.2414 23.772 29.684C22.5072 30.5449 20.2469 30.4001 19.384 29.0557C19.384 29.0557 19.384 29.0537 19.382 29.0516C19.3738 29.0374 19.3656 29.021 19.3575 29.0068C19.3473 28.9884 19.335 28.97 19.3248 28.9517C19.3248 28.9517 19.3248 28.9496 19.3248 28.9476C17.4174 25.5592 12.5724 24.5718 9.26967 26.4404C7.44183 27.44 6.21375 29.1883 5.82207 31.1957H9.63483C10.1448 29.8391 11.4096 28.9231 12.9967 28.9456C14.3064 28.9374 15.3958 29.5188 16.0567 30.5694C16.0833 30.6163 16.1098 30.6653 16.1343 30.7122C17.6826 33.4397 21.4525 34.0517 24.3636 33.2296C27.1951 32.4666 28.7109 29.9594 28.1152 27.0749" fill="url(#paint0_linear_0_17)"/>
</g>
<defs>
<linearGradient id="paint0_linear_0_17" x1="7.61523" y1="34.527" x2="24.639" y2="22.8929" gradientUnits="userSpaceOnUse">
<stop stop-color="#6F39FF"/>
<stop offset="0.43" stop-color="#6879FF"/>
<stop offset="1" stop-color="#11EBB7"/>
</linearGradient>
</defs>
</svg>
