<svg width="24" height="24" viewBox="0 0 24 24" fill="none" xmlns="http://www.w3.org/2000/svg">
  <path d="M9.5 7.5C9.5 6.11929 10.6193 5 12 5C13.3807 5 14.5 6.11929 14.5 7.5V8.5H16.5C17.3284 8.5 18 9.17157 18 10V19.5C18 20.3284 17.3284 21 16.5 21H7.5C6.67157 21 6 20.3284 6 19.5V10C6 9.17157 6.67157 8.5 7.5 8.5H9.5V7.5ZM11 7.5C11 6.94772 11.4477 6.5 12 6.5C12.5523 6.5 13 6.94772 13 7.5V8.5H11V7.5ZM7.5 10.5V19.5H16.5V10.5H7.5Z" fill="#09121F"/>
  <path d="M8.5 12H11.5V13H8.5V12ZM8.5 14.25H11.5V15.25H8.5V14.25ZM8.5 16.5H11.5V17.5H8.5V16.5Z" fill="#09121F"/>
</svg>
