<svg width="24" height="24" viewBox="0 0 24 24" fill="none" xmlns="http://www.w3.org/2000/svg">
  <path d="M13 21H18V23H6V21H11V19.95C9.41448 19.7908 7.88994 19.2551 6.55336 18.3874C5.21678 17.5198 4.10685 16.3454 3.316 14.962L5.053 13.97C5.66378 15.0373 6.51237 15.9493 7.53285 16.6354C8.55333 17.3215 9.71824 17.7631 10.9371 17.9259C12.1559 18.0887 13.3959 17.9684 14.5607 17.5742C15.7255 17.1801 16.7837 16.5227 17.6532 15.6532C18.5227 14.7837 19.1801 13.7255 19.5742 12.5607C19.9684 11.3959 20.0887 10.1559 19.9259 8.93708C19.7631 7.71824 19.3215 6.55333 18.6354 5.53285C17.9493 4.51237 17.0373 3.66378 15.97 3.053L16.962 1.316C18.493 2.19055 19.7655 3.4545 20.6503 4.97963C21.5351 6.50476 22.0007 8.2368 22 10C22 15.185 18.053 19.449 13 19.95V21ZM12 17C11.0807 17 10.1705 16.8189 9.32122 16.4672C8.47194 16.1154 7.70026 15.5998 7.05025 14.9497C6.40024 14.2997 5.88463 13.5281 5.53284 12.6788C5.18106 11.8295 5 10.9193 5 10C5 9.08075 5.18106 8.1705 5.53284 7.32122C5.88463 6.47194 6.40024 5.70026 7.05025 5.05025C7.70026 4.40024 8.47194 3.88463 9.32122 3.53284C10.1705 3.18106 11.0807 3 12 3C13.8565 3 15.637 3.7375 16.9497 5.05025C18.2625 6.36301 19 8.14348 19 10C19 11.8565 18.2625 13.637 16.9497 14.9497C15.637 16.2625 13.8565 17 12 17ZM12 15C13.3261 15 14.5979 14.4732 15.5355 13.5355C16.4732 12.5979 17 11.3261 17 10C17 8.67392 16.4732 7.40215 15.5355 6.46447C14.5979 5.52678 13.3261 5 12 5C10.6739 5 9.40215 5.52678 8.46447 6.46447C7.52678 7.40215 7 8.67392 7 10C7 11.3261 7.52678 12.5979 8.46447 13.5355C9.40215 14.4732 10.6739 15 12 15Z" fill="#09121F"/>
</svg>
