<svg preserveAspectRatio="none" width="100%" height="100%" overflow="visible" style="display: block;" viewBox="0 0 47.25 47.25" fill="none" xmlns="http://www.w3.org/2000/svg">
<g id="Group">
<g id="Vector">
</g>
<path id="Vector_2" d="M35.1402 23.247L33.7483 21.8551L14.2577 41.3457H5.90625V32.9923L28.1787 10.7179L39.3159 21.8551C39.685 22.2243 39.8924 22.725 39.8924 23.247C39.8924 23.769 39.685 24.2697 39.3159 24.6389L25.3969 38.5599L22.6111 35.7761L35.1402 23.247V23.247ZM36.5321 5.15025L42.1017 10.7179C42.4708 11.0871 42.6781 11.5877 42.6781 12.1098C42.6781 12.6318 42.4708 13.1325 42.1017 13.5017L39.3159 16.2875L30.9645 7.93406L33.7483 5.15025C34.1175 4.78117 34.6182 4.57383 35.1402 4.57383C35.6623 4.57383 36.1629 4.78117 36.5321 5.15025V5.15025Z" fill="var(--fill-0, #12003A)"/>
</g>
</svg>
