<svg preserveAspectRatio="none" width="100%" height="100%" overflow="visible" style="display: block;" viewBox="0 0 46.375 46.375" fill="none" xmlns="http://www.w3.org/2000/svg">
<g id="Group">
<g id="Vector">
</g>
<path id="Vector_2" d="M40.5781 18.3568V24.1536C40.5781 28.9554 32.791 32.849 23.1875 32.849C13.584 32.849 5.79688 28.9554 5.79688 24.1536V18.3568C5.79688 23.1585 13.584 27.0521 23.1875 27.0521C32.791 27.0521 40.5781 23.1585 40.5781 18.3568ZM5.79688 28.0182C5.79688 32.82 13.584 36.7135 23.1875 36.7135C32.791 36.7135 40.5781 32.82 40.5781 28.0182V33.8151C40.5781 38.6168 32.791 42.5104 23.1875 42.5104C13.584 42.5104 5.79688 38.6168 5.79688 33.8151V28.0182ZM23.1875 23.1875C13.584 23.1875 5.79688 19.2939 5.79688 14.4922C5.79688 9.69044 13.584 5.79688 23.1875 5.79688C32.791 5.79688 40.5781 9.69044 40.5781 14.4922C40.5781 19.2939 32.791 23.1875 23.1875 23.1875Z" fill="var(--fill-0, #12003A)"/>
</g>
</svg>
