<svg width="48" height="48" viewBox="0 0 48 48" fill="none" xmlns="http://www.w3.org/2000/svg">
  <path d="M15 20C18.866 20 22 16.866 22 13C22 9.13401 18.866 6 15 6C11.134 6 8 9.13401 8 13C8 16.866 11.134 20 15 20Z" fill="#12003A"/>
  <path d="M33 20C36.866 20 40 16.866 40 13C40 9.13401 36.866 6 33 6C29.134 6 26 9.13401 26 13C26 16.866 29.134 20 33 20Z" fill="#12003A"/>
  <path d="M4 40V38C4 33.5817 9.37258 30 15 30C20.6274 30 26 33.5817 26 38V40H4Z" fill="#12003A"/>
  <path d="M26 40V38C26 34.6863 29.4624 32.2288 33 31.2C31.9107 30.9 30.7607 30.7 29.6 30.6C28.05 30.45 26.5 30.5 25 30.8C28.5376 31.8288 32 34.2863 32 38V40H26Z" fill="#12003A"/>
  <path d="M44 40V38.2C44 35.0899 41.5523 32.5523 38.8 31.4C40.0176 31.1 41.3176 30.95 42.7 30.95C45.5357 30.95 48 32.9643 48 36.2V40H44Z" fill="#12003A"/>
</svg>
